<!DOCTYPE svg PUBLIC "-//W3C//DTD SVG 1.1//EN" "http://www.w3.org/Graphics/SVG/1.1/DTD/svg11.dtd">
<!-- Uploaded to: SVG Repo, www.svgrepo.com, Transformed by: SVG Repo Mixer Tools -->
<svg fill="#ff7f82" height="64px" width="64px" version="1.1" id="Capa_1" xmlns="http://www.w3.org/2000/svg" xmlns:xlink="http://www.w3.org/1999/xlink" viewBox="0 0 290.038 290.038" xml:space="preserve">
<g id="SVGRepo_bgCarrier" stroke-width="0"/>
<g id="SVGRepo_tracerCarrier" stroke-linecap="round" stroke-linejoin="round"/>
<g id="SVGRepo_iconCarrier"> <path d="M245.984,65.719l-37.465,21.035v-2.716c0-6.907-3.959-12.838-9.874-15.499c5.775-7.224,9.324-16.371,9.324-26.317 C207.969,18.94,189.07,0,165.789,0c-23.281,0-42.202,18.94-42.202,42.222c0,9.269,3.031,17.845,8.114,24.816h-19.243 c5.083-6.972,8.092-15.547,8.092-24.816C120.55,18.94,101.61,0,78.329,0C55.046,0,36.105,18.94,36.105,42.222 c0,10.034,3.357,19.256,9.224,26.508c-5.7,2.745-9.81,8.558-9.81,15.308v78c0,9.389,7.944,17,17.333,17h56.667v83H65.232 c-5.514,0-10.713,4.039-10.713,9.553v8.485c0,5.514,5.199,9.962,10.713,9.962h121.041c5.514,0,9.246-4.448,9.246-9.962v-8.485 c0-5.514-3.732-9.553-9.246-9.553h-45.754v-83h51.333c9.389,0,16.667-7.611,16.667-17v-6.021l37.465,21.024 c4.797,2.691,8.535,0.392,8.535-5.108V70.828C254.519,65.328,250.781,63.029,245.984,65.719z M186.273,285.076L186.273,285.076 L186.273,285.076L186.273,285.076z"/> </g>
</svg>